<svg t="1639286221388" class="icon" viewBox="0 0 1024 1024" version="1.1" xmlns="http://www.w3.org/2000/svg" p-id="993"
     width="128" height="128">
  <path
    d="M682.666667 341.333333a42.666667 42.666667 0 0 1 4.992 85.034667L682.666667 426.666667H170.666667a42.666667 42.666667 0 0 0-42.368 37.674666L128 469.333333v426.666667a42.666667 42.666667 0 0 0 37.674667 42.368L170.666667 938.666667h682.666666a42.666667 42.666667 0 0 0 42.368-37.674667L896 896v-256a42.666667 42.666667 0 0 1 85.034667-4.992L981.333333 640v256a128 128 0 0 1-120.490666 127.786667L853.333333 1024H170.666667a128 128 0 0 1-127.786667-120.490667L42.666667 896V469.333333a128 128 0 0 1 120.490666-127.786666L170.666667 341.333333h512z"
  ></path>
  <path
    d="M962.133333 311.466667a45.952 45.952 0 0 1 5.12 70.016l-338.773333 392.021333-101.546667 37.376a19.114667 19.114667 0 0 1-14.933333-4.650667v-4.693333l34.133333-93.354667 338.773334-392.021333a55.168 55.168 0 0 1 77.226666-4.693333z"
  ></path>
  <path
    d="M512 0a256 256 0 0 1 256 256 42.666667 42.666667 0 0 1-85.333333 0 170.666667 170.666667 0 0 0-341.12-8.533333L341.333333 256v85.333333a42.666667 42.666667 0 0 1-85.034666 4.992L256 341.333333V256a256 256 0 0 1 256-256z"
  ></path>
</svg>
