<svg t="1639671245870" class="icon" viewBox="0 0 1024 1024" version="1.1" xmlns="http://www.w3.org/2000/svg" p-id="2891"
     width="128" height="128">
  <path
    d="M618.666667 149.333333H405.333333c-23.466667 0-42.666667 19.2-42.666666 42.666667v640c0 23.466667 19.2 42.666667 42.666666 42.666667h213.333334c23.466667 0 42.666667-19.2 42.666666-42.666667V192c0-23.466667-19.2-42.666667-42.666666-42.666667z m-106.666667 640c-23.466667 0-42.666667-19.2-42.666667-42.666666s19.2-42.666667 42.666667-42.666667 42.666667 19.2 42.666667 42.666667-19.2 42.666667-42.666667 42.666666z m53.333333-277.333333h-106.666666c-17.066667 0-32-14.933333-32-32s14.933333-32 32-32h106.666666c17.066667 0 32 14.933333 32 32s-14.933333 32-32 32z m0-106.666667h-106.666666c-17.066667 0-32-14.933333-32-32s14.933333-32 32-32h106.666666c17.066667 0 32 14.933333 32 32s-14.933333 32-32 32z m0-106.666666h-106.666666c-17.066667 0-32-14.933333-32-32s14.933333-32 32-32h106.666666c17.066667 0 32 14.933333 32 32s-14.933333 32-32 32zM262.4 219.733333c-4.266667-4.266667-10.666667-6.4-17.066667-6.4l-164.266666 17.066667c-21.333333 2.133333-38.4 21.333333-38.4 42.666667v541.866666c0 21.333333 17.066667 40.533333 38.4 42.666667l164.266666 17.066667c6.4 0 12.8-2.133333 17.066667-6.4l29.866667-29.866667c4.266667-4.266667 6.4-8.533333 6.4-14.933333V264.533333c0-6.4-2.133333-10.666667-6.4-14.933333l-29.866667-29.866667zM202.666667 558.933333c-2.133333 4.266667-4.266667 6.4-6.4 10.666667-2.133333 2.133333-6.4 4.266667-8.533334 6.4H121.6c-4.266667 0-6.4-2.133333-10.666667-2.133333-4.266667-2.133333-6.4-4.266667-8.533333-6.4-2.133333-2.133333-4.266667-6.4-6.4-10.666667-2.133333-4.266667-2.133333-8.533333-2.133333-12.8 0-4.266667 0-8.533333 2.133333-12.8 2.133333-4.266667 4.266667-6.4 6.4-10.666667 2.133333-2.133333 6.4-4.266667 8.533333-6.4 4.266667-2.133333 6.4-2.133333 10.666667-2.133333h55.466667c4.266667 0 8.533333 0 10.666666 2.133333 4.266667 2.133333 6.4 4.266667 8.533334 6.4 2.133333 2.133333 4.266667 6.4 6.4 10.666667 2.133333 4.266667 2.133333 8.533333 2.133333 12.8 0 6.4 0 10.666667-2.133333 14.933333z m0-108.8c-2.133333 4.266667-4.266667 6.4-6.4 10.666667-2.133333 2.133333-6.4 4.266667-8.533334 6.4-2.133333 2.133333-6.4 2.133333-10.666666 2.133333H121.6c-4.266667 0-6.4 0-10.666667-2.133333s-6.4-4.266667-8.533333-6.4c-2.133333-2.133333-4.266667-6.4-6.4-10.666667-2.133333-4.266667-2.133333-8.533333-2.133333-12.8 0-4.266667 0-8.533333 2.133333-12.8 2.133333-4.266667 4.266667-6.4 6.4-10.666666 2.133333-2.133333 6.4-4.266667 8.533333-6.4 4.266667 0 6.4-2.133333 10.666667-2.133334h55.466667c4.266667 0 8.533333 0 10.666666 2.133334 4.266667 2.133333 6.4 4.266667 8.533334 6.4 2.133333 2.133333 4.266667 6.4 6.4 10.666666 2.133333 4.266667 2.133333 8.533333 2.133333 12.8 0 4.266667 0 8.533333-2.133333 12.8z m0-108.8c-2.133333 4.266667-4.266667 6.4-6.4 10.666667-2.133333 2.133333-6.4 6.4-8.533334 6.4-2.133333 2.133333-6.4 4.266667-10.666666 4.266667H121.6c-4.266667 0-6.4 0-10.666667-2.133334s-6.4-4.266667-8.533333-6.4c-2.133333-2.133333-4.266667-6.4-6.4-10.666666-2.133333-4.266667-2.133333-8.533333-2.133333-12.8 0-4.266667 0-8.533333 2.133333-12.8 2.133333-4.266667 4.266667-6.4 6.4-10.666667 2.133333-2.133333 6.4-4.266667 8.533333-6.4 4.266667-2.133333 6.4-2.133333 10.666667-2.133333h55.466667c4.266667 0 8.533333 0 10.666666 2.133333 4.266667 2.133333 6.4 4.266667 8.533334 6.4 2.133333 2.133333 4.266667 6.4 6.4 10.666667 2.133333 4.266667 2.133333 8.533333 2.133333 12.8 0 2.133333 0 6.4-2.133333 10.666666zM942.933333 230.4l-164.266666-17.066667c-6.4 0-12.8 2.133333-17.066667 6.4l-29.866667 29.866667c-4.266667 4.266667-6.4 8.533333-6.4 14.933333v558.933334c0 6.4 2.133333 10.666667 6.4 14.933333l29.866667 29.866667c4.266667 4.266667 10.666667 6.4 17.066667 6.4l164.266666-17.066667c21.333333-2.133333 38.4-21.333333 38.4-42.666667V273.066667c0-21.333333-17.066667-40.533333-38.4-42.666667zM928 554.666667c-2.133333 4.266667-4.266667 6.4-6.4 10.666666-2.133333 2.133333-6.4 6.4-8.533333 6.4-4.266667 2.133333-6.4 2.133333-10.666667 2.133334l-55.466667 2.133333c-4.266667 0-8.533333 0-10.666666-2.133333-4.266667-2.133333-6.4-4.266667-8.533334-6.4-2.133333-2.133333-4.266667-6.4-6.4-10.666667-2.133333-4.266667-2.133333-8.533333-2.133333-12.8 0-4.266667 0-8.533333 2.133333-12.8 2.133333-4.266667 4.266667-6.4 6.4-10.666667 2.133333-2.133333 6.4-6.4 8.533334-6.4 4.266667-2.133333 6.4-2.133333 10.666666-2.133333h55.466667c4.266667 0 6.4 0 10.666667 2.133333s6.4 4.266667 8.533333 6.4c2.133333 2.133333 4.266667 6.4 6.4 10.666667 2.133333 4.266667 2.133333 8.533333 2.133333 12.8 0 2.133333-2.133333 6.4-2.133333 10.666667z m0-104.533334c-2.133333 4.266667-4.266667 6.4-6.4 10.666667-2.133333 2.133333-6.4 4.266667-8.533333 6.4-4.266667 2.133333-6.4 2.133333-10.666667 2.133333h-55.466667c-4.266667 0-8.533333 0-10.666666-2.133333-4.266667-2.133333-6.4-4.266667-8.533334-6.4-2.133333-2.133333-4.266667-6.4-6.4-10.666667-2.133333-4.266667-2.133333-8.533333-2.133333-12.8 0-4.266667 0-8.533333 2.133333-12.8 2.133333-4.266667 4.266667-6.4 6.4-10.666666 2.133333-2.133333 6.4-4.266667 8.533334-6.4 4.266667-2.133333 6.4-2.133333 10.666666-2.133334h55.466667c4.266667 0 6.4 0 10.666667 2.133334s6.4 4.266667 8.533333 6.4c2.133333 2.133333 4.266667 6.4 6.4 10.666666 2.133333 4.266667 2.133333 8.533333 2.133333 12.8 0 4.266667-2.133333 8.533333-2.133333 12.8z m0-106.666666c-2.133333 4.266667-4.266667 6.4-6.4 10.666666-2.133333 2.133333-6.4 4.266667-8.533333 6.4-4.266667 2.133333-6.4 2.133333-10.666667 2.133334h-55.466667c-4.266667 0-8.533333 0-10.666666-2.133334-4.266667-2.133333-6.4-4.266667-8.533334-6.4-2.133333-2.133333-4.266667-6.4-6.4-10.666666-2.133333-4.266667-2.133333-8.533333-2.133333-12.8 0-4.266667 0-8.533333 2.133333-12.8 2.133333-4.266667 4.266667-6.4 6.4-10.666667 2.133333-2.133333 6.4-4.266667 8.533334-6.4 4.266667-2.133333 6.4-2.133333 10.666666-2.133333l55.466667 2.133333c4.266667 0 6.4 2.133333 10.666667 2.133333 4.266667 2.133333 6.4 4.266667 8.533333 6.4 2.133333 2.133333 4.266667 6.4 6.4 10.666667 2.133333 4.266667 2.133333 8.533333 2.133333 12.8 0 4.266667-2.133333 8.533333-2.133333 10.666667z"
    p-id="2892"></path>
</svg>
