<svg t="1646583692165" class="icon" viewBox="0 0 1024 1024" version="1.1" xmlns="http://www.w3.org/2000/svg" p-id="4073" width="128" height="128"><path d="M104.704 345.984l4.266667 2.517333L725.333333 759.338667l232.32-154.88a42.666667 42.666667 0 0 1 56.192 7.893333l2.986667 3.968a42.666667 42.666667 0 0 1-7.850667 56.192l-3.968 2.986667-256 170.666666a42.666667 42.666667 0 0 1-42.410666 2.816l-4.949334-2.816-329.344-219.477333a42.368 42.368 0 0 1-9.728 7.637333l-4.437333 2.218667-149.333333 64a42.666667 42.666667 0 0 1-11.093334 3.072L192 704H85.333333V896a42.666667 42.666667 0 0 1-85.034666 4.992L0 896v-384a42.666667 42.666667 0 0 1 85.034667-4.992L85.333333 512v106.666667h97.834667l107.861333-46.250667-229.376-152.917333A42.666667 42.666667 0 0 1 104.704 346.026667z" p-id="4074"></path><path d="M272 9.386667l-213.333333 170.666666a42.666667 42.666667 0 0 0 2.986666 68.778667l640 426.666667a42.666667 42.666667 0 0 0 47.36 0l256-170.666667a42.666667 42.666667 0 0 0-1.066666-71.68l-682.666667-426.666667a42.666667 42.666667 0 0 0-49.28 2.858667z m29.696 85.461333l600.96 375.594667L725.333333 588.672 157.525333 210.176l144.170667-115.328z" p-id="4075"></path></svg>