<svg t="1646583576913" class="icon" viewBox="0 0 1024 1024" version="1.1" xmlns="http://www.w3.org/2000/svg" p-id="4564" width="128" height="128"><path d="M746.666667 810.666667m-64 0a64 64 0 1 0 128 0 64 64 0 1 0-128 0Z" p-id="4565"></path><path d="M867.626667 597.333333h-241.92l-119.978667 213.333334 119.978667 213.333333h241.92l119.978666-213.333333-119.978666-213.333334z m-49.92 85.333334l71.978666 128-72.021333 128H675.626667L603.605333 810.666667l71.978667-128h142.122667z" p-id="4566"></path><path d="M104.704 345.984l4.266667 2.517333 376.533333 251.008a42.666667 42.666667 0 0 1-43.050667 73.514667l-4.266666-2.56-65.834667-43.818667a42.368 42.368 0 0 1-9.770667 7.68l-4.437333 2.218667-149.333333 64a42.666667 42.666667 0 0 1-11.093334 3.072L192 704H85.333333V896a42.666667 42.666667 0 0 1-85.034666 4.992L0 896v-384a42.666667 42.666667 0 0 1 85.034667-4.992L85.333333 512v106.666667h97.834667l107.904-46.250667-229.418667-152.917333A42.666667 42.666667 0 0 1 104.704 346.026667zM316.544 3.925333l4.736 2.56 682.666667 426.666667a42.666667 42.666667 0 0 1 5.333333 68.437333l-4.266667 3.242667-67.029333 44.672a42.666667 42.666667 0 0 1-51.328-68.010667l3.968-2.986666 12.074667-8.064L301.696 94.848 158.549333 209.365333l418.986667 266.666667a42.666667 42.666667 0 0 1 15.573333 54.528l-2.432 4.352a42.666667 42.666667 0 0 1-54.570666 15.530667l-4.352-2.432-469.333334-298.666667a42.666667 42.666667 0 0 1-7.722666-65.706667l3.968-3.626666 213.333333-170.666667A42.666667 42.666667 0 0 1 316.586667 3.925333z" p-id="4567"></path></svg>